<svg height="512" viewBox="0 0 53 58" width="512" xmlns="http://www.w3.org/2000/svg"><g id="Page-1" fill="none" fill-rule="evenodd"><g id="022---Cross-File" fill-rule="nonzero"><path id="Shape" d="m5 52v-48c0-2.209139 1.790861-4 4-4h40c2.209139 0 4 1.790861 4 4v40l-12 12h-32c-2.209139 0-4-1.790861-4-4z" fill="#b0d3f0"/><path id="Shape" d="m41 56v-8c0-2.209139 1.790861-4 4-4h8z" fill="#90bae1"/><g fill="#285680"><path id="Shape" d="m13 7h-2c-.5522847 0-1-.44771525-1-1s.4477153-1 1-1h2c.5522847 0 1 .44771525 1 1s-.4477153 1-1 1z"/><path id="Shape" d="m47 7h-30c-.5522847 0-1-.44771525-1-1s.4477153-1 1-1h30c.5522847 0 1 .44771525 1 1s-.4477153 1-1 1z"/><path id="Shape" d="m13 13h-2c-.5522847 0-1-.4477153-1-1s.4477153-1 1-1h2c.5522847 0 1 .4477153 1 1s-.4477153 1-1 1z"/><path id="Shape" d="m40 13h-23c-.5522847 0-1-.4477153-1-1s.4477153-1 1-1h23c.5522847 0 1 .4477153 1 1s-.4477153 1-1 1z"/><path id="Shape" d="m13 19h-2c-.5522847 0-1-.4477153-1-1s.4477153-1 1-1h2c.5522847 0 1 .4477153 1 1s-.4477153 1-1 1z"/><path id="Shape" d="m33 19h-16c-.5522847 0-1-.4477153-1-1s.4477153-1 1-1h16c.5522847 0 1 .4477153 1 1s-.4477153 1-1 1z"/></g><path id="Shape" d="m49 35c-.5522847 0-1-.4477153-1-1v-14c0-.5522847.4477153-1 1-1s1 .4477153 1 1v14c0 .5522847-.4477153 1-1 1z" fill="#ecf0f1"/><path id="Shape" d="m49 41c-.5522847 0-1-.4477153-1-1v-2c0-.5522847.4477153-1 1-1s1 .4477153 1 1v2c0 .5522847-.4477153 1-1 1z" fill="#ecf0f1"/><path id="Shape" d="m19.832 43 10.246-9.836c.7731228-.7423979 1.0914531-1.8408579.835079-2.8816008-.256374-1.0407429-1.0485032-1.8656551-2.078-2.164-1.0294968-.298345-2.1399563-.0247971-2.913079.7176008l-10.422 10.005-10.422-10.005c-.77312273-.7423979-1.88358218-1.0159458-2.913079-.7176008-1.02949682.2983449-1.82162596 1.1232571-2.07800002 2.164-.25637407 1.0407429.06195626 2.1392029.83507902 2.8816008l10.246 9.836-10.246 9.836c-1.19514416 1.1476477-1.23364765 3.0468558-.08599995 4.242 1.14764769 1.1951441 3.04685574 1.2336477 4.24199995.086l10.422-10.005 10.422 10.005c1.1951442 1.1476476 3.0943522 1.1091441 4.2419999-.0860001s1.1091442-3.0943522-.0859999-4.2419999z" fill="#e64c3c"/></g></g></svg>